<?xml version="1.0" standalone="no"?>
<!DOCTYPE svg PUBLIC "-//W3C//DTD SVG 20010904//EN"
 "http://www.w3.org/TR/2001/REC-SVG-20010904/DTD/svg10.dtd">
<svg version="1.0" xmlns="http://www.w3.org/2000/svg"
 width="23" height="23" viewBox="0 0 920.000000 920.000000"
 preserveAspectRatio="xMidYMid meet">

<g transform="translate(0.000000,920.000000) scale(0.100000,-0.100000)"
fill="#555" stroke="none">
<path d="M1549 8835 c-584 -80 -1049 -536 -1141 -1118 -10 -65 -13 -532 -13
-2312 0 -2080 1 -2236 17 -2322 63 -330 239 -622 492 -817 175 -134 301 -196
520 -254 l101 -26 1241 -4 1241 -3 6 -257 c7 -284 20 -375 77 -537 159 -447
514 -757 995 -868 88 -21 115 -21 1330 -25 872 -2 1270 0 1340 8 309 35 578
164 795 380 174 174 286 362 350 591 50 180 50 147 50 2042 l0 1767 -117 123
c-64 67 -207 217 -318 332 -271 283 -1438 1507 -1499 1573 l-49 52 -1008 0
-1007 0 -235 248 c-129 136 -491 515 -804 842 l-569 595 -849 1 c-655 2 -872
-1 -946 -11z m1582 -696 c76 -36 133 -90 166 -157 l28 -57 5 -400 5 -400 28
-60 c36 -76 110 -147 183 -175 52 -19 76 -20 432 -20 422 0 458 -4 546 -63 29
-19 67 -57 85 -83 65 -99 61 19 61 -1821 0 -1874 5 -1743 -73 -1903 -32 -67
-59 -103 -122 -166 -89 -89 -151 -129 -270 -171 l-80 -28 -1240 0 -1240 0 -80
27 c-110 38 -197 91 -274 169 -76 76 -121 147 -159 251 l-27 73 0 2245 0 2245
23 65 c52 145 164 285 286 359 72 43 175 80 251 91 33 4 364 7 735 6 l675 -1
56 -26z m3621 -1686 c63 -29 134 -96 166 -158 l27 -50 6 -400 c6 -436 7 -446
67 -524 42 -57 73 -82 132 -110 l55 -26 415 -5 415 -5 67 -33 c73 -36 123 -86
160 -161 l23 -46 3 -1700 c2 -1675 2 -1701 -18 -1780 -60 -241 -232 -416 -475
-487 l-80 -23 -1210 0 c-1124 0 -1215 1 -1279 18 -183 47 -354 184 -435 348
-69 141 -71 160 -71 544 l1 340 81 60 c204 152 371 385 457 637 l26 77 216
-167 c118 -92 343 -266 500 -386 156 -121 343 -266 416 -323 73 -57 136 -103
140 -103 4 0 8 200 8 445 l0 445 498 0 497 0 0 325 0 325 -499 0 -498 0 1 435
c1 239 -1 435 -5 435 -4 0 -40 -26 -80 -57 -406 -314 -1128 -871 -1137 -877
-9 -5 -12 347 -12 1504 l0 1511 688 -3 c680 -3 687 -3 734 -25z"/>
<path d="M2690 5656 l0 -436 -495 -2 -496 -3 -2 -323 -2 -322 497 0 498 0 2
-449 3 -449 775 599 c426 330 776 603 778 608 2 5 -84 76 -190 158 -106 82
-265 205 -353 273 -88 68 -239 184 -335 259 -96 74 -272 209 -390 301 -118 91
-232 179 -252 194 l-38 28 0 -436z"/>
</g>
</svg>
