<?xml version="1.0" standalone="no"?>
<!DOCTYPE svg PUBLIC "-//W3C//DTD SVG 20010904//EN"
 "http://www.w3.org/TR/2001/REC-SVG-20010904/DTD/svg10.dtd">
<svg version="1.0" xmlns="http://www.w3.org/2000/svg"
 width="24" height="24" viewBox="0 0 1997.000000 1998.000000"
 preserveAspectRatio="xMidYMid meet">

<g transform="translate(0.000000,1998.000000) scale(0.100000,-0.100000)"
fill="#0063d1" stroke="none">
<path d="M9775 19314 c-99 -13 -142 -25 -264 -71 -169 -65 -324 -173 -457
-320 -68 -74 -94 -104 -222 -253 -105 -122 -267 -276 -342 -325 -127 -84 -258
-144 -371 -170 -31 -7 -74 -19 -95 -26 -47 -17 -365 -17 -434 -1 -112 26 -137
34 -167 47 -17 8 -40 15 -50 15 -10 0 -36 9 -58 20 -22 11 -43 20 -49 20 -5 0
-27 8 -50 19 -23 10 -66 29 -96 41 -30 12 -73 31 -96 41 -23 11 -45 19 -49 19
-4 0 -21 7 -38 15 -83 38 -232 84 -312 96 -80 12 -347 12 -410 0 -27 -5 -63
-14 -78 -20 -16 -6 -38 -11 -49 -11 -11 0 -39 -8 -62 -19 -23 -10 -66 -29 -96
-42 -210 -88 -444 -298 -548 -492 -19 -34 -37 -66 -41 -72 -6 -9 -31 -74 -71
-185 -7 -19 -18 -60 -24 -90 -7 -30 -15 -62 -19 -70 -10 -21 -45 -153 -60
-225 -7 -33 -19 -70 -25 -82 -7 -12 -12 -32 -12 -45 0 -13 -9 -40 -20 -61 -11
-20 -20 -42 -20 -48 0 -13 -88 -191 -98 -199 -4 -3 -25 -32 -47 -65 -51 -79
-190 -217 -290 -287 -115 -80 -272 -158 -350 -172 -22 -4 -52 -14 -67 -22 -15
-8 -53 -14 -85 -14 -32 -1 -87 -7 -123 -15 -40 -9 -154 -17 -295 -21 -143 -4
-255 -12 -295 -21 -36 -8 -87 -18 -115 -22 -27 -4 -64 -15 -82 -24 -18 -9 -39
-17 -48 -17 -8 0 -32 -9 -52 -20 -21 -11 -44 -20 -51 -20 -20 0 -148 -76 -216
-128 -131 -100 -264 -261 -339 -407 -44 -88 -67 -142 -67 -159 0 -9 -6 -29
-14 -44 -7 -15 -23 -83 -36 -151 -31 -173 -22 -335 36 -578 7 -34 14 -74 14
-90 0 -16 7 -56 16 -88 20 -75 44 -268 44 -358 1 -311 -108 -588 -329 -839
-77 -88 -244 -209 -416 -303 -38 -21 -88 -48 -110 -61 -53 -31 -77 -44 -159
-89 -137 -74 -256 -169 -351 -278 -33 -38 -65 -74 -70 -81 -25 -27 -94 -146
-120 -206 -15 -36 -36 -83 -46 -106 -11 -22 -19 -49 -19 -60 0 -10 -9 -46 -19
-79 -15 -49 -19 -93 -20 -235 -1 -96 3 -197 8 -225 13 -73 40 -175 57 -212 8
-17 14 -36 14 -42 0 -7 18 -43 40 -82 22 -39 40 -72 40 -74 0 -8 65 -100 72
-103 4 -2 8 -8 8 -14 0 -5 26 -44 58 -86 61 -80 142 -192 243 -337 45 -65 129
-232 129 -259 0 -12 7 -29 15 -40 8 -10 17 -39 21 -65 3 -25 13 -66 21 -91 31
-94 28 -342 -6 -477 -6 -24 -15 -60 -20 -80 -11 -45 -36 -116 -56 -158 -7 -16
-16 -37 -20 -45 -3 -8 -16 -31 -28 -52 -12 -20 -37 -61 -55 -92 -17 -31 -39
-64 -47 -73 -25 -29 -194 -269 -220 -312 -5 -9 -21 -32 -35 -51 -31 -42 -50
-76 -90 -160 -17 -36 -37 -78 -45 -95 -8 -16 -17 -43 -21 -60 -3 -16 -12 -46
-19 -65 -19 -53 -39 -280 -31 -363 4 -40 10 -101 13 -137 3 -36 12 -80 19 -99
8 -18 14 -42 14 -52 0 -22 53 -156 69 -172 6 -6 11 -19 11 -28 0 -10 6 -24 13
-31 6 -7 19 -26 27 -43 21 -43 115 -162 174 -220 105 -102 169 -150 281 -210
39 -21 77 -44 86 -51 8 -8 23 -14 32 -14 8 0 22 -6 29 -13 7 -7 36 -24 63 -38
214 -110 325 -174 371 -214 6 -5 35 -30 63 -54 28 -24 75 -68 104 -99 28 -30
60 -64 70 -74 9 -10 17 -22 17 -26 0 -5 9 -17 20 -27 11 -10 20 -23 20 -30 0
-7 9 -20 20 -30 11 -10 20 -25 20 -32 0 -8 9 -26 20 -40 11 -14 20 -33 20 -43
0 -9 9 -25 20 -35 11 -10 20 -29 20 -43 0 -14 7 -33 16 -43 9 -10 18 -37 21
-61 3 -24 12 -59 21 -78 25 -52 30 -470 7 -550 -9 -30 -20 -94 -25 -141 -5
-47 -16 -106 -24 -130 -9 -24 -16 -66 -16 -94 0 -27 -7 -89 -14 -138 -9 -61
-11 -110 -5 -165 5 -42 13 -113 17 -157 5 -44 16 -94 25 -112 10 -18 17 -42
17 -55 0 -13 9 -38 20 -56 11 -18 20 -40 20 -50 0 -10 4 -22 9 -27 6 -6 22
-32 36 -60 52 -99 116 -182 207 -270 90 -88 159 -145 174 -145 4 0 15 -7 24
-15 25 -23 171 -95 192 -95 10 0 36 -9 58 -20 22 -11 50 -20 62 -20 13 0 35
-6 50 -14 40 -21 69 -25 233 -31 83 -3 202 -10 265 -16 63 -6 184 -13 268 -17
96 -5 156 -12 160 -19 4 -6 30 -14 57 -18 28 -4 59 -13 71 -20 11 -7 40 -18
62 -25 23 -6 42 -15 42 -20 0 -6 6 -10 13 -10 36 0 261 -147 339 -221 25 -24
75 -82 111 -129 36 -47 75 -97 86 -112 12 -14 21 -33 21 -41 0 -8 6 -17 14
-20 8 -3 17 -19 21 -36 3 -16 12 -35 20 -41 7 -6 16 -23 19 -38 4 -15 13 -40
21 -57 21 -45 45 -124 55 -179 5 -27 14 -52 20 -56 6 -4 15 -31 19 -61 4 -30
14 -67 23 -84 8 -16 18 -50 21 -74 3 -24 11 -47 17 -51 7 -4 15 -29 17 -56 3
-27 14 -61 24 -76 11 -14 19 -34 20 -45 0 -10 14 -40 30 -68 16 -27 36 -63 45
-80 29 -56 39 -71 94 -135 72 -83 83 -95 159 -160 57 -49 79 -65 143 -105 40
-25 142 -75 152 -75 7 0 29 -9 51 -20 22 -11 50 -20 63 -20 12 0 37 -7 54 -16
26 -14 198 -35 288 -36 76 -1 283 23 307 35 16 8 47 18 70 22 23 3 47 13 54
21 6 8 24 14 40 14 15 0 49 11 75 25 26 14 53 25 59 25 7 0 18 7 25 15 7 8 22
15 34 15 11 0 39 9 61 19 94 45 133 61 147 61 9 0 21 7 28 15 7 8 30 18 52 21
22 4 46 13 54 21 8 8 34 17 57 20 23 3 60 13 82 24 36 17 64 18 286 16 219 -2
249 -4 266 -20 11 -9 33 -17 49 -17 16 0 45 -8 64 -19 19 -10 54 -22 77 -25
23 -4 47 -14 53 -21 6 -8 24 -17 40 -20 16 -3 34 -13 41 -21 6 -8 15 -14 19
-14 12 0 100 -60 154 -105 59 -49 127 -115 185 -181 24 -27 72 -78 106 -114
33 -36 71 -78 84 -95 29 -39 191 -204 226 -230 14 -11 35 -28 46 -38 10 -9 22
-17 26 -17 3 0 15 -7 25 -17 21 -18 32 -25 119 -71 34 -17 68 -32 75 -32 8 0
28 -9 46 -20 18 -11 47 -20 63 -20 17 0 42 -8 55 -17 26 -18 161 -34 300 -35
111 0 288 18 305 32 9 7 35 17 58 21 42 7 147 48 157 61 3 3 18 10 35 14 16 4
47 20 69 36 23 16 57 39 77 52 74 49 212 185 299 295 19 24 43 51 53 60 9 8
17 18 17 22 0 4 21 29 48 57 26 27 81 85 122 130 97 103 246 223 313 252 12 6
29 14 37 20 26 16 126 60 139 60 6 0 22 6 34 14 12 8 45 17 72 21 28 3 61 14
74 22 21 13 61 16 237 15 189 0 219 -2 273 -21 34 -12 74 -21 90 -21 16 0 34
-7 41 -15 7 -8 24 -15 39 -15 14 0 41 -9 59 -20 18 -11 38 -20 45 -20 6 0 35
-11 62 -25 28 -13 55 -25 62 -25 6 0 24 -6 40 -14 96 -46 120 -56 136 -56 11
0 30 -9 44 -20 14 -11 34 -20 45 -20 10 0 36 -9 58 -20 22 -11 52 -20 67 -20
15 0 42 -8 58 -17 62 -34 476 -34 542 1 18 9 47 16 66 16 19 0 46 9 60 20 14
11 32 20 41 20 9 0 33 9 53 20 21 11 43 20 50 20 7 0 33 15 59 33 25 17 65 43
88 57 46 27 86 62 183 159 67 67 183 233 183 262 0 9 7 19 14 22 8 3 20 25 26
49 7 23 18 51 26 62 8 11 14 32 14 46 0 14 7 38 16 55 8 16 18 50 21 75 3 25
14 62 24 82 11 21 19 54 19 75 0 21 6 48 14 59 8 11 17 42 22 69 4 27 15 67
25 90 10 22 19 51 19 65 0 14 6 34 14 45 7 11 17 35 21 52 3 18 10 33 14 33 4
0 13 17 19 39 7 21 19 44 27 51 8 7 15 17 15 22 0 44 274 355 328 372 12 4 22
11 22 15 0 5 14 14 30 21 17 7 30 16 30 20 0 4 42 27 93 52 147 72 183 88 203
88 10 0 33 7 49 16 17 9 72 19 130 24 55 4 120 12 145 18 25 5 149 13 275 17
127 3 250 11 275 17 25 6 74 16 110 23 36 7 97 25 135 39 39 15 83 31 98 36
16 5 35 14 42 20 6 5 34 22 60 36 116 61 292 222 368 335 36 54 107 177 107
185 0 4 8 26 18 48 30 68 62 169 62 198 0 15 9 64 20 110 25 105 25 167 0 309
-11 63 -20 128 -20 144 -1 17 -8 48 -16 70 -8 22 -17 69 -20 105 -3 36 -12 85
-20 110 -8 25 -21 113 -29 195 -15 150 -13 222 15 380 11 67 44 173 64 210 9
17 16 38 16 48 0 9 4 17 8 17 5 0 16 18 24 39 60 152 284 393 460 496 10 6 57
33 105 62 48 28 111 63 138 78 28 15 68 37 90 50 22 13 54 31 70 39 32 16 35
18 130 80 258 168 425 400 506 701 31 114 39 440 14 536 -10 35 -21 84 -26
108 -5 24 -13 49 -18 55 -4 6 -14 28 -21 49 -16 52 -86 184 -119 227 -14 19
-40 55 -56 80 -17 25 -50 72 -75 105 -26 33 -54 71 -63 85 -9 14 -35 50 -57
80 -77 104 -117 165 -148 225 -45 88 -72 149 -72 166 0 8 -6 23 -14 34 -7 11
-16 43 -20 70 -4 28 -14 69 -22 93 -17 51 -20 358 -4 412 6 19 17 64 25 100
37 175 119 324 365 665 44 61 90 128 104 150 54 87 112 192 124 225 79 210
102 376 82 583 -8 72 -22 156 -32 186 -10 30 -18 61 -18 69 0 8 -9 33 -19 56
-11 23 -33 70 -50 107 -90 195 -276 392 -481 508 -41 24 -82 47 -90 52 -8 4
-42 22 -75 40 -33 17 -91 48 -130 69 -38 21 -90 48 -115 61 -25 13 -66 38 -92
56 -26 18 -51 33 -54 33 -8 0 -128 98 -175 142 -154 147 -274 359 -335 593
-24 90 -26 118 -26 285 0 102 5 208 11 235 7 28 16 79 22 115 6 36 19 110 29
165 37 198 51 353 40 445 -28 241 -41 289 -125 460 -54 110 -157 253 -231 320
-71 64 -149 126 -174 138 -14 7 -43 23 -65 36 -85 50 -144 77 -250 111 -133
43 -120 42 -475 60 -340 18 -494 31 -517 43 -10 6 -38 13 -62 17 -24 4 -64 16
-90 27 -97 42 -137 60 -151 69 -8 5 -25 13 -37 19 -53 23 -222 151 -279 212
-51 54 -118 137 -151 185 -70 103 -157 306 -183 428 -5 22 -14 54 -20 70 -7
17 -18 53 -25 80 -7 28 -18 64 -23 80 -6 17 -20 64 -32 105 -29 98 -71 211
-85 230 -6 8 -17 26 -23 40 -28 58 -68 119 -118 177 -28 34 -58 70 -66 80 -45
61 -329 263 -370 263 -6 0 -30 9 -53 20 -89 43 -239 74 -410 85 -77 5 -127 2
-220 -14 -138 -23 -231 -47 -260 -67 -11 -8 -26 -14 -34 -14 -13 0 -53 -17
-146 -61 -22 -10 -44 -19 -48 -19 -5 0 -34 -12 -65 -26 -31 -14 -73 -33 -92
-41 -19 -9 -48 -22 -65 -29 -38 -17 -110 -43 -155 -55 -19 -6 -60 -18 -90 -27
-45 -14 -98 -17 -286 -17 -162 0 -235 3 -245 12 -8 6 -37 17 -64 24 -27 7 -61
18 -75 26 -14 7 -33 13 -43 13 -27 0 -169 72 -251 127 -86 58 -220 190 -391
383 -179 203 -219 243 -310 315 -167 131 -368 215 -577 241 -135 17 -210 16
-343 -2z m-1970 -5854 c22 -4 78 -16 125 -25 47 -9 99 -23 117 -31 17 -8 40
-14 52 -14 12 0 38 -9 58 -20 21 -11 45 -20 55 -20 9 0 36 -10 60 -23 24 -12
66 -33 93 -45 28 -12 68 -33 90 -47 22 -14 47 -28 55 -32 30 -13 137 -88 210
-148 188 -151 404 -407 470 -555 6 -13 15 -27 18 -30 10 -6 94 -196 120 -270
35 -96 62 -194 62 -221 0 -15 8 -46 17 -70 26 -65 27 -599 1 -674 -9 -27 -19
-72 -23 -100 -4 -27 -10 -54 -15 -60 -4 -5 -12 -30 -18 -55 -25 -105 -122
-322 -204 -455 -141 -229 -412 -499 -628 -624 -30 -18 -62 -36 -70 -41 -13 -8
-108 -53 -236 -111 -23 -11 -50 -19 -60 -19 -10 0 -27 -7 -37 -15 -11 -7 -38
-16 -60 -20 -23 -4 -68 -15 -100 -26 -31 -10 -74 -19 -95 -19 -20 0 -64 -7
-97 -15 -83 -20 -397 -20 -480 0 -33 8 -78 15 -100 15 -22 1 -58 8 -80 16 -22
9 -64 20 -94 25 -29 5 -63 16 -75 24 -11 8 -28 15 -38 15 -16 0 -39 9 -153 60
-22 10 -47 21 -55 24 -27 11 -144 77 -185 104 -185 124 -363 285 -479 436
-105 137 -142 195 -211 336 -81 166 -85 175 -85 190 0 9 -9 33 -20 55 -11 22
-20 49 -20 60 0 11 -9 46 -20 78 -11 31 -20 73 -20 94 0 21 -7 63 -16 93 -10
36 -17 116 -21 235 -4 158 -2 192 16 279 12 55 21 112 21 128 0 16 9 54 20 85
11 32 20 66 20 78 1 11 9 38 20 60 11 22 19 44 20 49 0 18 49 133 88 207 120
232 252 405 427 561 135 120 337 258 435 298 14 5 32 14 40 19 51 29 144 64
230 88 30 8 60 19 65 23 6 4 43 13 84 19 41 7 79 15 85 18 6 4 29 10 51 14 60
10 524 9 570 -1z m4869 -57 c70 -29 72 -31 155 -113 36 -36 76 -86 88 -110 97
-199 66 -377 -101 -576 -28 -34 -103 -124 -166 -200 -63 -76 -119 -144 -125
-150 -5 -7 -26 -31 -44 -54 -19 -23 -40 -48 -45 -54 -6 -6 -38 -45 -71 -86
-33 -41 -68 -84 -79 -95 -10 -11 -53 -63 -95 -115 -42 -52 -78 -97 -82 -100
-5 -5 -86 -101 -154 -184 -22 -27 -45 -54 -50 -60 -6 -6 -51 -60 -100 -121
-49 -60 -92 -112 -96 -115 -3 -3 -50 -59 -105 -126 -280 -340 -308 -374 -443
-534 -21 -25 -79 -96 -129 -158 -50 -62 -99 -120 -107 -129 -9 -8 -52 -61 -97
-117 -45 -55 -86 -105 -92 -111 -7 -5 -48 -55 -93 -110 -44 -55 -91 -112 -104
-126 -13 -15 -31 -35 -39 -45 -8 -11 -53 -65 -100 -122 -47 -57 -111 -135
-143 -175 -32 -40 -80 -97 -107 -127 -52 -59 -204 -243 -286 -345 -27 -35 -73
-90 -101 -122 -28 -32 -75 -88 -104 -124 -146 -179 -283 -345 -293 -354 -6 -5
-38 -44 -71 -85 -72 -90 -249 -304 -314 -380 -27 -30 -78 -93 -116 -140 -37
-47 -73 -89 -79 -95 -7 -5 -48 -55 -93 -110 -44 -55 -89 -110 -99 -121 -11
-12 -35 -41 -54 -64 -19 -24 -73 -89 -120 -145 -47 -56 -114 -137 -149 -180
-36 -42 -69 -82 -75 -89 -6 -6 -24 -29 -41 -51 -16 -22 -38 -49 -48 -60 -10
-11 -53 -62 -95 -114 -42 -52 -95 -114 -117 -139 -38 -42 -132 -112 -152 -112
-5 0 -15 -6 -21 -12 -7 -7 -58 -20 -113 -29 -86 -13 -108 -14 -162 -2 -34 8
-79 23 -99 34 -20 10 -43 19 -51 19 -24 0 -154 133 -179 185 -64 128 -63 123
-62 239 1 105 3 115 36 186 29 62 79 135 143 207 5 6 24 28 41 50 18 21 58 70
90 109 33 39 75 90 94 114 19 24 67 80 105 125 57 65 176 210 255 309 8 10 22
26 30 35 12 14 194 231 234 281 7 8 30 36 52 61 21 25 54 63 71 85 46 56 92
112 134 159 19 22 50 60 69 85 19 25 37 47 40 50 5 5 71 84 155 185 18 22 96
115 174 208 78 92 177 211 221 265 44 53 124 151 180 217 55 66 137 165 181
220 45 55 87 105 93 110 7 6 58 66 114 135 160 196 283 344 291 350 3 3 22 25
41 50 31 40 137 167 150 180 3 3 35 41 70 85 36 44 92 112 125 151 33 39 119
142 190 229 72 86 159 192 195 235 36 42 115 137 175 210 61 73 137 165 170
204 34 39 98 116 143 171 45 55 127 154 182 220 56 66 128 154 162 195 33 41
91 111 128 155 37 44 112 134 167 200 255 308 393 472 414 491 37 32 100 71
144 90 89 39 261 38 359 -3z m81 -3117 c39 -8 97 -19 130 -25 107 -17 192 -42
330 -98 164 -67 347 -173 474 -275 153 -124 344 -335 426 -472 64 -107 114
-199 139 -256 15 -36 33 -78 40 -95 20 -46 48 -135 57 -180 4 -22 15 -65 23
-95 9 -30 16 -70 16 -90 0 -19 7 -70 15 -113 19 -99 19 -287 0 -392 -8 -44
-15 -99 -15 -122 0 -24 -9 -69 -19 -100 -11 -32 -22 -75 -26 -95 -3 -20 -12
-50 -20 -65 -8 -15 -15 -36 -15 -45 0 -10 -9 -37 -19 -60 -66 -144 -117 -248
-140 -283 -14 -22 -31 -50 -38 -63 -61 -114 -279 -352 -421 -462 -42 -33 -84
-65 -92 -73 -14 -11 -53 -36 -115 -74 -11 -7 -33 -19 -50 -28 -16 -8 -37 -20
-45 -25 -8 -6 -26 -14 -40 -20 -14 -5 -32 -14 -40 -19 -37 -23 -102 -51 -118
-51 -9 0 -33 -8 -52 -19 -19 -10 -53 -21 -75 -25 -21 -4 -51 -13 -65 -21 -14
-7 -52 -15 -85 -19 -33 -4 -78 -13 -100 -21 -31 -11 -100 -14 -300 -14 -143 0
-278 4 -300 9 -22 5 -65 14 -95 20 -30 6 -82 20 -115 31 -33 10 -68 19 -78 19
-9 0 -34 9 -54 20 -21 11 -46 20 -55 20 -10 0 -32 9 -50 20 -18 11 -40 20 -49
20 -9 0 -22 6 -28 14 -7 8 -23 17 -38 21 -14 3 -50 22 -79 41 -30 18 -56 34
-58 34 -9 0 -139 91 -203 141 -168 134 -371 370 -467 544 -9 17 -20 37 -26 45
-20 33 -90 188 -90 200 0 7 -8 31 -19 54 -28 64 -53 138 -58 176 -2 19 -12 64
-23 100 -41 142 -38 639 4 759 9 24 16 55 16 69 0 29 43 164 65 204 8 14 15
33 15 41 0 20 118 250 165 322 157 241 399 479 610 600 28 16 52 32 55 35 12
15 285 140 305 140 7 0 32 9 56 20 24 11 55 20 69 20 14 0 37 7 53 15 15 7 67
19 115 24 48 6 103 15 122 20 60 15 396 13 475 -3z"/>
<path d="M7410 12319 c-177 -33 -306 -96 -413 -203 -64 -64 -139 -166 -152
-207 -4 -13 -14 -33 -21 -44 -8 -11 -14 -31 -14 -45 0 -14 -8 -38 -17 -55 -13
-23 -18 -63 -21 -170 -3 -123 -1 -148 17 -200 12 -33 21 -67 21 -76 0 -16 47
-117 60 -129 3 -3 12 -18 20 -35 20 -39 164 -184 220 -221 100 -66 193 -99
325 -115 95 -12 249 -3 287 17 15 8 37 14 50 14 13 0 38 9 56 20 18 11 37 20
42 20 16 0 90 50 151 102 130 110 238 291 253 423 4 28 9 76 12 107 4 31 1
101 -6 155 -35 282 -221 512 -490 608 -46 17 -243 55 -270 53 -8 0 -58 -9
-110 -19z"/>
<path d="M12355 9140 c-16 -3 -39 -11 -50 -17 -11 -6 -37 -13 -57 -17 -50 -9
-187 -88 -249 -144 -60 -54 -126 -139 -161 -207 -50 -96 -68 -142 -68 -171 0
-16 -7 -54 -15 -84 -8 -30 -15 -77 -15 -105 0 -27 7 -75 15 -105 8 -30 15 -68
15 -83 0 -29 21 -84 68 -175 35 -68 114 -165 183 -224 52 -45 171 -118 191
-118 5 0 28 -8 51 -19 84 -37 419 -35 492 3 17 9 36 16 43 16 46 0 234 142
304 230 44 56 128 213 128 240 0 10 7 37 16 61 20 57 29 210 15 274 -35 167
-65 239 -140 349 -38 54 -165 173 -205 191 -17 8 -56 28 -86 45 -30 16 -65 30
-78 30 -13 0 -37 8 -55 17 -25 14 -61 18 -172 19 -77 1 -153 -2 -170 -6z"/>
</g>
</svg>
