<?xml version="1.0" standalone="no"?>
<!DOCTYPE svg PUBLIC "-//W3C//DTD SVG 20010904//EN"
 "http://www.w3.org/TR/2001/REC-SVG-20010904/DTD/svg10.dtd">
<svg version="1.0" xmlns="http://www.w3.org/2000/svg"
 width="40" height="40" viewBox="0 0 512.000000 512.000000"
 preserveAspectRatio="xMidYMid meet">

<g transform="translate(0.000000,512.000000) scale(0.100000,-0.100000)"
fill="#555" stroke="none">
<path d="M598 4740 c-169 -29 -330 -125 -439 -261 -60 -74 -99 -149 -131 -249
l-23 -75 0 -1150 0 -1150 31 -87 c44 -122 87 -190 179 -283 91 -92 193 -151
322 -188 78 -21 79 -21 1279 -25 l1202 -3 513 -435 c283 -240 527 -443 543
-451 37 -19 86 -10 117 23 l24 26 3 417 3 418 144 7 c255 12 398 68 540 211
92 93 135 161 179 283 l31 87 0 1150 0 1150 -23 75 c-77 243 -240 408 -487
491 l-70 24 -1945 1 c-1070 1 -1966 -2 -1992 -6z m3925 -215 c181 -47 316
-180 371 -364 14 -49 16 -171 16 -1144 0 -1198 2 -1148 -61 -1268 -57 -106
-179 -205 -300 -244 -41 -13 -104 -18 -259 -21 -117 -3 -214 -10 -227 -16 -50
-25 -53 -50 -53 -417 0 -188 -2 -341 -5 -341 -5 0 -816 684 -883 744 l-24 21
-1236 5 c-1163 6 -1240 7 -1291 24 -125 42 -243 139 -300 245 -63 120 -61 70
-61 1268 0 973 2 1095 16 1144 54 182 189 316 367 364 81 21 3846 22 3930 0z"/>
<path d="M840 3772 c-23 -11 -39 -29 -48 -54 -13 -33 -12 -41 4 -75 11 -21 30
-43 44 -50 37 -18 3403 -18 3440 0 14 7 33 29 44 50 16 34 17 42 4 75 -9 25
-25 43 -48 54 -33 17 -136 18 -1720 18 -1584 0 -1687 -1 -1720 -18z"/>
<path d="M842 3105 c-71 -31 -76 -135 -8 -176 30 -18 72 -19 1726 -19 1654 0
1696 1 1726 19 69 42 63 146 -10 176 -52 22 -3384 22 -3434 0z"/>
<path d="M834 2431 c-69 -42 -63 -146 10 -176 53 -22 3379 -22 3432 0 73 30
79 134 10 176 -30 18 -72 19 -1726 19 -1654 0 -1696 -1 -1726 -19z"/>
</g>
</svg>
