<?xml version="1.0" standalone="no"?>
<!DOCTYPE svg PUBLIC "-//W3C//DTD SVG 20010904//EN"
 "http://www.w3.org/TR/2001/REC-SVG-20010904/DTD/svg10.dtd">
<svg version="1.0" xmlns="http://www.w3.org/2000/svg"
 width="40" height="40" viewBox="0 0 512.000000 512.000000"
 preserveAspectRatio="xMidYMid meet">

<g transform="translate(0.000000,512.000000) scale(0.100000,-0.100000)"
fill="#555" stroke="none">
<path d="M3600 4904 c-154 -28 -332 -104 -457 -195 -88 -64 -192 -174 -257
-271 -32 -49 -59 -88 -61 -88 -2 0 -21 33 -42 73 -45 86 -169 215 -255 266
-138 80 -359 128 -553 118 -452 -23 -856 -344 -966 -767 -29 -113 -32 -301 -6
-412 l18 -77 -25 -80 c-73 -232 -56 -398 54 -511 54 -56 160 -112 246 -131 52
-12 55 -14 64 -53 45 -176 136 -324 260 -422 l59 -46 3 -96 c2 -56 -1 -102 -7
-109 -5 -7 -108 -39 -228 -72 -246 -69 -369 -112 -507 -179 -388 -188 -636
-509 -704 -907 -13 -76 -42 -448 -49 -631 -3 -67 21 -96 71 -92 65 6 68 17 91
364 23 340 39 434 102 575 113 260 323 470 590 593 78 36 186 72 192 65 3 -2
66 -87 142 -189 164 -222 172 -230 202 -230 32 0 51 11 152 83 l83 61 29 -35
c16 -18 31 -43 34 -54 3 -11 -37 -282 -90 -602 -52 -319 -95 -588 -95 -597 0
-48 89 -75 123 -38 12 14 44 183 117 629 55 336 100 618 100 626 0 9 -20 45
-45 81 -25 37 -45 70 -45 74 1 7 113 90 135 98 7 3 45 -18 84 -46 l71 -52 -47
-66 c-37 -51 -47 -74 -46 -101 1 -20 45 -298 97 -618 53 -321 96 -587 96 -593
0 -20 41 -50 68 -50 43 0 72 26 72 64 0 19 -42 293 -94 610 l-95 577 32 45
c17 24 34 44 37 44 4 0 51 -31 105 -70 100 -71 135 -83 167 -57 9 6 82 101
163 210 81 108 154 197 161 197 25 0 143 -48 236 -97 239 -123 435 -331 533
-563 63 -150 75 -216 99 -561 13 -183 28 -335 35 -347 22 -42 97 -41 120 1 10
20 9 80 -9 333 -22 333 -36 422 -82 554 -105 296 -290 512 -579 675 -145 83
-358 162 -604 225 -66 17 -142 38 -169 47 l-48 15 4 104 c3 97 5 105 28 121
50 34 133 120 176 179 51 72 87 149 113 242 l18 66 56 13 c52 11 136 49 197
89 25 16 27 15 105 -40 180 -130 388 -196 615 -196 440 0 855 258 1042 646
112 233 134 504 63 773 -133 500 -570 825 -1105 820 -63 -1 -149 -7 -190 -15z
m442 -153 c336 -76 594 -317 701 -656 73 -230 59 -492 -36 -698 -122 -263
-373 -469 -663 -542 -282 -72 -576 -17 -801 149 -35 25 -63 47 -63 49 0 2 7
25 16 51 27 79 15 246 -25 367 l-33 97 16 100 c30 186 14 358 -43 469 -19 38
-82 102 -130 133 l-24 16 28 44 c149 239 386 395 671 440 86 13 285 3 386 -19z
m-1793 -111 c217 -44 374 -174 452 -373 14 -38 32 -75 40 -82 8 -8 47 -19 87
-25 40 -5 83 -17 96 -25 31 -20 70 -79 87 -130 18 -52 17 -216 0 -324 l-14
-84 -120 -78 c-66 -44 -123 -79 -127 -79 -13 0 -77 74 -135 157 -60 86 -62 88
-100 87 -22 -1 -71 -14 -110 -29 -58 -23 -90 -29 -184 -33 -182 -8 -323 26
-534 126 -154 73 -145 78 -257 -135 l-84 -161 -38 21 c-21 12 -62 41 -92 64
-44 34 -55 49 -66 90 -66 256 9 534 198 735 123 130 255 214 412 263 159 48
304 53 489 15z m-549 -1060 c201 -82 383 -118 541 -106 75 6 179 28 230 50 11
5 24 -5 44 -36 41 -62 132 -154 166 -168 16 -7 29 -15 29 -19 -3 -102 -44
-501 -56 -541 -46 -155 -159 -286 -310 -363 -289 -146 -654 -22 -795 270 -45
94 -58 166 -77 433 l-18 245 70 137 c39 76 73 138 75 138 3 0 48 -18 101 -40z
m1352 -206 c9 -32 17 -93 17 -135 2 -129 -50 -203 -176 -254 -32 -13 -59 -22
-61 -20 -6 5 20 348 27 362 8 16 154 112 166 109 6 -1 18 -29 27 -62z m-1741
-88 c4 -12 9 -76 13 -142 4 -65 9 -131 12 -146 7 -36 -12 -37 -86 -2 -110 51
-154 118 -154 234 1 41 8 101 17 132 l17 57 88 -55 c56 -36 89 -63 93 -78z
m629 -1081 c107 -24 251 -16 378 21 20 6 22 3 22 -32 0 -99 -2 -102 -133 -194
-66 -47 -124 -84 -128 -83 -4 2 -62 41 -128 89 l-121 86 0 70 c0 68 1 70 23
64 12 -4 51 -13 87 -21z m-89 -306 c54 -39 99 -74 99 -77 -1 -8 -351 -255
-354 -250 -1 2 -48 65 -104 141 -57 76 -100 142 -97 147 3 6 16 10 28 11 12 0
87 22 167 49 80 26 149 48 153 49 5 1 53 -31 108 -70z m734 20 c88 -29 168
-55 177 -58 14 -5 -2 -32 -88 -146 -58 -77 -110 -139 -116 -137 -18 5 -350
244 -345 248 11 11 201 144 206 144 3 0 77 -23 166 -51z"/>
<path d="M3783 4470 c-35 -14 -43 -42 -43 -154 0 -118 8 -106 -80 -121 -121
-20 -192 -172 -148 -318 17 -55 82 -122 133 -136 22 -6 95 -11 161 -11 136 0
159 -9 170 -66 5 -24 0 -37 -19 -60 l-25 -29 -194 -3 c-181 -2 -194 -4 -210
-23 -24 -28 -23 -74 2 -99 17 -17 33 -20 115 -20 l95 0 0 -105 c0 -99 2 -107
25 -130 30 -30 54 -31 89 -4 25 20 26 24 26 130 l0 109 33 0 c37 0 125 39 149
66 73 83 75 221 5 301 -52 60 -94 73 -234 73 -68 0 -133 5 -146 11 -50 23 -64
113 -24 153 22 22 32 23 206 29 208 7 221 11 221 78 0 56 -25 69 -127 69 l-83
0 0 113 c0 96 -3 116 -17 129 -25 22 -54 28 -80 18z"/>
<path d="M993 1010 c-12 -5 -26 -18 -32 -29 -7 -13 -11 -141 -11 -368 0 -338
1 -350 20 -371 24 -26 66 -29 98 -6 l22 15 0 362 c0 199 -4 367 -8 373 -8 13
-47 34 -59 33 -4 0 -18 -4 -30 -9z"/>
<path d="M3055 995 l-25 -24 0 -349 c0 -338 1 -350 21 -376 25 -31 66 -34 100
-7 l24 19 3 331 c3 359 -1 400 -43 419 -38 17 -53 15 -80 -13z"/>
</g>
</svg>
